<?xml version="1.0" encoding="UTF-8"?>
<!-- Generator: visioncortex VTracer 0.6.4 -->
<svg version="1.1" xmlns="http://www.w3.org/2000/svg" width="1024" height="1024">
<path d="M0 0 C337.92 0 675.84 0 1024 0 C1024 337.92 1024 675.84 1024 1024 C686.08 1024 348.16 1024 0 1024 C0 686.08 0 348.16 0 0 Z " fill="#FEFEFE" transform="translate(0,0)"/>
<path d="M0 0 C7.153 4.736 12.53 9.868 14.988 18.316 C15.956 27.554 15.347 35.296 9.988 43.066 C9.473 43.824 8.957 44.582 8.426 45.363 C6.988 47.316 6.988 47.316 4.988 49.316 C6.163 56.472 8.489 63.259 10.777 70.125 C11.341 71.834 11.341 71.834 11.916 73.578 C12.933 76.663 13.954 79.748 14.977 82.832 C16.706 88.054 18.424 93.281 20.144 98.506 C20.583 99.842 21.022 101.177 21.462 102.512 C25.924 116.068 30.283 129.655 34.613 143.254 C39.069 157.241 43.542 171.218 48.252 185.123 C49.886 189.953 51.454 194.794 52.941 199.672 C55.003 206.428 57.231 213.123 59.488 219.816 C60.25 222.076 61.011 224.337 61.77 226.598 C62.1 227.578 62.431 228.558 62.771 229.568 C63.827 232.82 64.838 236.081 65.837 239.351 C68.006 246.427 70.306 253.457 72.629 260.484 C73.072 261.83 73.516 263.175 73.959 264.52 C74.897 267.369 75.836 270.217 76.775 273.065 C83.916 294.724 91.017 316.394 97.926 338.129 C104.318 358.234 110.886 378.279 117.488 398.316 C125.3 422.022 133.026 445.75 140.592 469.535 C140.893 470.481 141.194 471.428 141.504 472.402 C141.797 473.326 142.091 474.249 142.393 475.2 C144.37 481.407 146.38 487.603 148.41 493.793 C148.676 494.606 148.942 495.418 149.216 496.255 C150.435 499.982 151.659 503.706 152.894 507.427 C153.311 508.7 153.728 509.973 154.145 511.246 C154.683 512.874 154.683 512.874 155.232 514.535 C155.988 517.316 155.988 517.316 155.988 521.316 C156.824 521.355 156.824 521.355 157.676 521.395 C164.91 521.932 170.155 523.879 175.676 528.629 C182.432 536.481 185.502 542.604 185.305 553.215 C184.543 560.683 181.414 567.127 175.988 572.316 C169.071 577.097 164.042 579.455 155.613 579.504 C154.512 579.518 153.412 579.532 152.277 579.547 C147.901 579.24 144.352 578.196 140.656 575.812 C138.047 575.049 138.047 575.049 136.108 576.262 C133.756 577.878 131.531 579.599 129.301 581.379 C127.591 582.692 125.88 584.005 124.168 585.316 C123.303 585.988 122.437 586.66 121.546 587.352 C117.734 590.28 113.835 593.081 109.926 595.879 C108.435 596.953 106.944 598.027 105.453 599.102 C104.717 599.632 103.981 600.161 103.222 600.708 C99.475 603.407 95.732 606.112 91.988 608.816 C87.502 612.058 83.015 615.298 78.523 618.531 C70.814 624.084 63.131 629.671 55.488 635.316 C45.634 642.596 35.703 649.765 25.759 656.921 C17.302 663.009 8.869 669.125 0.488 675.316 C-7.891 681.507 -16.323 687.621 -24.778 693.708 C-28.525 696.407 -32.268 699.112 -36.012 701.816 C-40.498 705.058 -44.985 708.298 -49.477 711.531 C-57.186 717.084 -64.869 722.671 -72.512 728.316 C-82.366 735.596 -92.297 742.765 -102.241 749.921 C-110.698 756.009 -119.131 762.125 -127.512 768.316 C-135.891 774.507 -144.323 780.621 -152.778 786.708 C-156.525 789.407 -160.268 792.112 -164.012 794.816 C-168.498 798.058 -172.985 801.298 -177.477 804.531 C-185.186 810.084 -192.869 815.671 -200.512 821.316 C-210.366 828.596 -220.297 835.765 -230.241 842.921 C-238.698 849.009 -247.131 855.125 -255.512 861.316 C-263.135 866.948 -270.796 872.523 -278.492 878.055 C-281.676 880.345 -284.842 882.658 -288 884.984 C-289.227 885.883 -289.227 885.883 -290.478 886.801 C-292.048 887.951 -293.614 889.107 -295.176 890.268 C-295.882 890.784 -296.589 891.3 -297.316 891.832 C-298.244 892.517 -298.244 892.517 -299.191 893.216 C-301.181 894.419 -302.703 895.028 -305.012 895.316 C-307.232 894.031 -309.118 892.747 -311.137 891.191 C-312.394 890.258 -313.652 889.324 -314.91 888.391 C-315.576 887.89 -316.242 887.389 -316.929 886.873 C-320.505 884.201 -324.138 881.609 -327.762 879.004 C-329.3 877.892 -330.838 876.78 -332.375 875.668 C-335.412 873.472 -338.451 871.279 -341.492 869.09 C-350.002 862.961 -358.469 856.78 -366.904 850.549 C-375.227 844.407 -383.616 838.358 -392.012 832.316 C-402.017 825.116 -411.989 817.874 -421.904 810.549 C-429.488 804.952 -437.128 799.432 -444.778 793.925 C-449.277 790.685 -453.77 787.436 -458.264 784.189 C-462 781.49 -465.737 778.794 -469.477 776.102 C-477.991 769.969 -486.464 763.784 -494.904 757.549 C-503.227 751.407 -511.616 745.358 -520.012 739.316 C-530.017 732.116 -539.989 724.874 -549.904 717.549 C-557.488 711.952 -565.128 706.432 -572.778 700.925 C-577.277 697.685 -581.77 694.436 -586.264 691.189 C-590 688.49 -593.737 685.794 -597.477 683.102 C-605.991 676.969 -614.464 670.784 -622.904 664.549 C-631.227 658.407 -639.616 652.358 -648.012 646.316 C-658.017 639.116 -667.989 631.874 -677.904 624.549 C-685.488 618.952 -693.128 613.432 -700.778 607.925 C-705.277 604.685 -709.77 601.436 -714.264 598.189 C-718 595.49 -721.737 592.794 -725.477 590.102 C-733.21 584.531 -740.913 578.923 -748.574 573.254 C-757.292 566.804 -766.125 560.529 -775.012 554.316 C-773.505 546.805 -771.278 539.66 -768.863 532.395 C-768.237 530.493 -767.611 528.591 -766.985 526.69 C-766.325 524.686 -765.662 522.684 -764.999 520.681 C-763.624 516.531 -762.256 512.38 -760.889 508.228 C-760.432 506.839 -759.974 505.45 -759.517 504.061 C-759.291 503.376 -759.066 502.692 -758.834 501.987 C-758.154 499.922 -757.473 497.857 -756.792 495.793 C-753.294 485.185 -749.826 474.568 -746.387 463.941 C-745.919 462.499 -745.452 461.057 -744.985 459.615 C-742.952 453.336 -740.926 447.054 -738.909 440.77 C-738.217 438.613 -737.524 436.456 -736.831 434.298 C-735.987 431.672 -735.145 429.045 -734.306 426.417 C-732.645 421.242 -730.955 416.1 -729.043 411.012 C-727.448 406.694 -726.11 402.329 -724.844 397.906 C-721.547 386.447 -717.745 375.151 -714.004 363.831 C-711.749 357.006 -709.505 350.177 -707.262 343.348 C-707.036 342.659 -706.809 341.971 -706.576 341.262 C-702.381 328.49 -698.273 315.691 -694.199 302.879 C-687.281 281.132 -680.161 259.454 -673.016 237.78 C-666.312 217.441 -659.702 197.077 -653.219 176.667 C-649.025 163.473 -644.691 150.348 -640.107 137.284 C-637.815 130.735 -635.715 124.176 -633.841 117.496 C-631.878 110.601 -629.47 103.864 -627.041 97.122 C-625.145 91.804 -623.449 86.458 -621.895 81.031 C-619.537 72.847 -616.913 64.755 -614.254 56.664 C-614.039 56.009 -613.823 55.353 -613.601 54.678 C-612.261 50.602 -610.917 46.528 -609.572 42.455 C-607.76 36.966 -605.952 31.477 -604.145 25.986 C-603.522 24.095 -602.898 22.204 -602.273 20.314 C-600.086 13.676 -597.972 7.025 -596.012 0.316 C-595.022 0.316 -594.032 0.316 -593.012 0.316 C-592.531 1.173 -592.531 1.173 -592.041 2.047 C-585.252 14.13 -578.385 26.162 -571.384 38.124 C-565.176 48.733 -559.038 59.383 -552.903 70.034 C-549.775 75.463 -546.643 80.89 -543.512 86.316 C-542.262 88.483 -541.012 90.65 -539.762 92.816 C-538.834 94.425 -538.834 94.425 -537.887 96.066 C-472.262 209.816 -472.262 209.816 -470.386 213.068 C-469.139 215.229 -467.892 217.39 -466.646 219.551 C-463.47 225.055 -460.295 230.558 -457.121 236.062 C-456.481 237.173 -455.84 238.284 -455.18 239.428 C-453.916 241.62 -452.652 243.813 -451.388 246.006 C-448.483 251.047 -445.568 256.082 -442.625 261.102 C-442.107 261.987 -441.589 262.873 -441.056 263.785 C-440.094 265.429 -439.129 267.07 -438.159 268.709 C-435.012 274.093 -435.012 274.093 -435.012 276.316 C-356.472 276.316 -277.932 276.316 -197.012 276.316 C-196.022 273.346 -195.032 270.376 -194.012 267.316 C-189.195 259.916 -183.286 256.074 -175.012 253.316 C-173.469 253.56 -173.469 253.56 -171.895 253.809 C-167.456 254.261 -164.01 254.471 -160.012 252.316 C-154.902 246.721 -151.918 239.334 -148.643 232.58 C-146.057 227.406 -143.096 222.47 -140.137 217.504 C-138.959 215.496 -137.783 213.487 -136.609 211.477 C-136.019 210.467 -135.429 209.458 -134.821 208.418 C-129.813 199.832 -124.864 191.212 -119.903 182.599 C-116.775 177.17 -113.643 171.743 -110.512 166.316 C-109.262 164.15 -108.012 161.983 -106.762 159.816 C-94.262 138.15 -81.762 116.483 -69.262 94.816 C-68.642 93.742 -68.022 92.668 -67.384 91.561 C-66.144 89.412 -64.903 87.262 -63.663 85.113 C-60.738 80.043 -57.814 74.974 -54.892 69.903 C-53.514 67.512 -52.135 65.121 -50.757 62.731 C-49.786 61.047 -48.816 59.362 -47.846 57.678 C-46.961 56.143 -46.961 56.143 -46.059 54.578 C-45.283 53.232 -45.283 53.232 -44.491 51.858 C-43.466 50.097 -42.403 48.359 -41.31 46.64 C-39.779 44.403 -39.779 44.403 -40.199 41.879 C-40.761 40.106 -41.377 38.349 -42.035 36.609 C-44.301 28.969 -44.348 20.106 -40.949 12.816 C-37.006 6.167 -32.016 0.858 -24.73 -2.023 C-16.631 -3.99 -7.451 -4.027 0 0 Z " fill="#682C8A" transform="translate(807.01171875,65.68359375)"/>
<path d="M0 0 C0.66 4.29 1.32 8.58 2 13 C-2.064 14.355 -5.698 15.446 -9.84 16.297 C-10.968 16.53 -12.096 16.763 -13.259 17.003 C-14.473 17.25 -15.687 17.496 -16.938 17.75 C-18.222 18.013 -19.507 18.276 -20.831 18.547 C-33.065 21.045 -45.324 23.411 -57.586 25.765 C-66.353 27.449 -75.114 29.163 -83.875 30.875 C-85.625 31.217 -87.375 31.558 -89.125 31.9 C-91.776 32.418 -94.428 32.935 -97.079 33.453 C-103.09 34.627 -109.102 35.8 -115.113 36.973 C-133.077 40.476 -151.039 43.985 -169 47.5 C-183.603 50.358 -198.207 53.213 -212.812 56.062 C-213.651 56.226 -214.489 56.39 -215.353 56.558 C-222.072 57.869 -228.791 59.179 -235.511 60.49 C-245.623 62.462 -255.735 64.434 -265.847 66.409 C-270.635 67.343 -275.423 68.278 -280.212 69.211 C-285.542 70.25 -290.872 71.29 -296.201 72.33 C-298.263 72.733 -300.324 73.135 -302.386 73.536 C-305.254 74.095 -308.121 74.655 -310.988 75.215 C-312.271 75.464 -312.271 75.464 -313.58 75.719 C-314.37 75.873 -315.16 76.028 -315.974 76.187 C-316.659 76.321 -317.343 76.454 -318.049 76.592 C-318.693 76.727 -319.337 76.861 -320 77 C-320.708 77.115 -321.416 77.229 -322.146 77.348 C-324.425 77.912 -324.425 77.912 -325.697 81.251 C-326.283 82.732 -326.851 84.219 -327.406 85.711 C-327.882 86.931 -327.882 86.931 -328.366 88.175 C-329.425 90.903 -330.462 93.639 -331.5 96.375 C-332.249 98.316 -333 100.256 -333.753 102.195 C-335.354 106.329 -336.948 110.466 -338.537 114.604 C-340.951 120.885 -343.401 127.152 -345.863 133.414 C-346.268 134.444 -346.673 135.474 -347.09 136.535 C-347.915 138.631 -348.739 140.728 -349.564 142.824 C-351.679 148.204 -353.786 153.586 -355.895 158.969 C-360.511 170.754 -365.132 182.538 -369.754 194.322 C-371.417 198.563 -373.08 202.804 -374.743 207.046 C-378.095 215.594 -381.448 224.142 -384.801 232.69 C-396.215 261.788 -407.615 290.891 -419 320 C-416.12 318.647 -413.634 317.102 -411.086 315.199 C-410.334 314.641 -409.583 314.083 -408.808 313.508 C-408.005 312.907 -407.202 312.306 -406.375 311.688 C-404.655 310.411 -402.935 309.135 -401.215 307.859 C-400.343 307.213 -399.472 306.566 -398.574 305.9 C-394.715 303.051 -390.829 300.241 -386.938 297.438 C-386.2 296.906 -385.462 296.375 -384.703 295.827 C-383.213 294.754 -381.724 293.681 -380.234 292.609 C-376.486 289.91 -372.743 287.205 -369 284.5 C-364.514 281.259 -360.027 278.019 -355.535 274.785 C-347.825 269.232 -340.142 263.646 -332.5 258 C-322.646 250.721 -312.714 243.552 -302.771 236.396 C-294.314 230.308 -285.881 224.191 -277.5 218 C-269.121 211.81 -260.689 205.695 -252.234 199.609 C-248.486 196.91 -244.743 194.205 -241 191.5 C-236.514 188.259 -232.027 185.019 -227.535 181.785 C-219.825 176.232 -212.142 170.646 -204.5 165 C-194.646 157.721 -184.714 150.552 -174.771 143.396 C-166.314 137.308 -157.881 131.191 -149.5 125 C-141.121 118.81 -132.689 112.695 -124.234 106.609 C-120.486 103.91 -116.743 101.205 -113 98.5 C-108.514 95.259 -104.027 92.019 -99.535 88.785 C-91.825 83.232 -84.142 77.646 -76.5 72 C-66.646 64.721 -56.714 57.552 -46.771 50.396 C-44.534 48.785 -42.298 47.174 -40.062 45.562 C-39.326 45.032 -38.59 44.501 -37.831 43.954 C-33.077 40.519 -28.349 37.05 -23.635 33.561 C-20.486 31.231 -17.331 28.911 -14.173 26.595 C-12.769 25.565 -11.367 24.531 -9.968 23.495 C-8.175 22.171 -6.371 20.864 -4.562 19.562 C-3.574 18.842 -2.585 18.121 -1.566 17.379 C1 16 1 16 3.145 16.066 C5.392 17.197 6.639 18.446 8.25 20.375 C9.031 21.284 9.031 21.284 9.828 22.211 C11 24 11 24 11 27 C9.076 28.602 7.196 29.985 5.125 31.375 C3.829 32.273 2.533 33.171 1.238 34.07 C0.201 34.784 0.201 34.784 -0.857 35.513 C-4.502 38.043 -8.093 40.648 -11.688 43.25 C-12.439 43.792 -13.19 44.335 -13.963 44.893 C-19.584 48.957 -25.172 53.066 -30.75 57.188 C-37.269 62.004 -43.824 66.76 -50.43 71.457 C-61.665 79.448 -72.801 87.574 -83.891 95.766 C-92.951 102.452 -102.09 109.027 -111.229 115.604 C-119.686 121.692 -128.119 127.809 -136.5 134 C-144.879 140.19 -153.311 146.305 -161.766 152.391 C-165.514 155.09 -169.257 157.795 -173 160.5 C-177.486 163.741 -181.973 166.981 -186.465 170.215 C-194.175 175.768 -201.858 181.354 -209.5 187 C-219.354 194.279 -229.286 201.448 -239.229 208.604 C-247.686 214.692 -256.119 220.809 -264.5 227 C-272.879 233.19 -281.311 239.305 -289.766 245.391 C-293.514 248.09 -297.257 250.795 -301 253.5 C-305.486 256.741 -309.973 259.981 -314.465 263.215 C-322.175 268.768 -329.858 274.354 -337.5 280 C-347.354 287.279 -357.286 294.448 -367.229 301.604 C-376.483 308.267 -385.7 314.974 -394.87 321.752 C-401.168 326.401 -407.505 330.996 -413.863 335.562 C-414.552 336.058 -415.24 336.553 -415.949 337.062 C-416.619 337.539 -417.288 338.016 -417.978 338.508 C-419.387 339.548 -420.766 340.63 -422.12 341.742 C-427.288 345.94 -427.288 345.94 -430.535 346.215 C-434.183 344.417 -437.25 342.072 -440.438 339.562 C-441.875 338.457 -443.314 337.353 -444.754 336.25 C-445.471 335.698 -446.188 335.147 -446.926 334.578 C-449.865 332.342 -452.861 330.194 -455.875 328.062 C-457.025 327.246 -458.175 326.43 -459.324 325.613 C-459.915 325.194 -460.506 324.774 -461.115 324.342 C-471.784 316.746 -482.356 309.016 -492.891 301.234 C-501.214 295.091 -509.604 289.042 -518 283 C-528.006 275.799 -537.977 268.557 -547.892 261.233 C-555.477 255.636 -563.116 250.116 -570.766 244.609 C-575.265 241.369 -579.758 238.12 -584.252 234.873 C-587.988 232.174 -591.725 229.477 -595.465 226.785 C-603.979 220.652 -612.452 214.468 -620.892 208.233 C-629.215 202.091 -637.604 196.042 -646 190 C-656.006 182.799 -665.977 175.557 -675.892 168.233 C-683.477 162.636 -691.116 157.116 -698.766 151.609 C-703.265 148.369 -707.758 145.12 -712.252 141.873 C-715.988 139.174 -719.725 136.477 -723.465 133.785 C-731.979 127.652 -740.452 121.468 -748.892 115.233 C-757.215 109.091 -765.604 103.042 -774 97 C-784.006 89.799 -793.977 82.557 -803.892 75.233 C-811.477 69.636 -819.116 64.116 -826.766 58.609 C-831.265 55.369 -835.758 52.12 -840.252 48.873 C-843.988 46.174 -847.725 43.477 -851.465 40.785 C-860.824 34.044 -870.136 27.241 -879.41 20.383 C-882.428 18.153 -885.456 15.94 -888.496 13.742 C-889.195 13.236 -889.893 12.729 -890.613 12.208 C-891.921 11.26 -893.232 10.315 -894.546 9.375 C-898.888 6.223 -898.888 6.223 -900 4 C-881.423 7.281 -862.872 10.68 -844.335 14.181 C-840.766 14.855 -837.197 15.527 -833.627 16.199 C-827.412 17.37 -821.198 18.542 -814.983 19.715 C-805.839 21.44 -796.695 23.163 -787.551 24.887 C-772.153 27.788 -756.756 30.691 -741.358 33.595 C-725.363 36.612 -709.368 39.628 -693.373 42.643 C-691.824 42.935 -691.824 42.935 -690.243 43.233 C-678.656 45.417 -667.068 47.602 -655.481 49.786 C-654.435 49.983 -653.389 50.18 -652.312 50.383 C-648.098 51.178 -643.884 51.972 -639.67 52.767 C-628.408 54.889 -617.147 57.012 -605.886 59.136 C-582.352 63.574 -558.817 68.01 -535.281 72.441 C-530.624 73.318 -525.968 74.194 -521.311 75.071 C-511.003 77.013 -500.695 78.953 -490.386 80.89 C-486.038 81.707 -481.689 82.525 -477.34 83.344 C-476.518 83.499 -475.696 83.654 -474.848 83.814 C-473.232 84.118 -471.615 84.423 -469.999 84.728 C-466.21 85.441 -462.42 86.148 -458.627 86.839 C-447.089 88.943 -447.089 88.943 -441.633 90.232 C-429.009 93.101 -418.082 90.485 -405.648 87.516 C-403.452 87.017 -401.255 86.522 -399.057 86.03 C-393.322 84.738 -387.598 83.407 -381.874 82.066 C-374.907 80.441 -367.929 78.863 -360.953 77.278 C-355.53 76.045 -350.108 74.806 -344.691 73.544 C-343.695 73.314 -342.7 73.083 -341.674 72.846 C-339.829 72.419 -337.985 71.988 -336.142 71.554 C-331.101 70.39 -326.145 69.552 -321 69 C-321.66 67.02 -322.32 65.04 -323 63 C-314.285 60.685 -305.509 58.861 -296.655 57.183 C-292.678 56.428 -288.704 55.662 -284.73 54.895 C-283.512 54.659 -283.512 54.659 -282.268 54.419 C-274.06 52.829 -265.873 51.14 -257.688 49.438 C-243.156 46.42 -228.596 43.566 -214.02 40.772 C-206.885 39.403 -199.755 38.013 -192.625 36.625 C-191.111 36.331 -189.598 36.036 -188.084 35.742 C-163.025 30.867 -137.969 25.974 -112.915 21.07 C-109.998 20.5 -107.081 19.929 -104.164 19.358 C-103.204 19.17 -102.245 18.983 -101.256 18.789 C-99.328 18.412 -97.401 18.035 -95.473 17.658 C-90.867 16.757 -86.26 15.855 -81.654 14.953 C-69.772 12.624 -57.887 10.305 -46 8 C-45.058 7.817 -44.116 7.634 -43.145 7.446 C-37.27 6.307 -31.394 5.172 -25.517 4.044 C-23.645 3.684 -21.774 3.323 -19.903 2.961 C-17.315 2.46 -14.726 1.964 -12.137 1.469 C-11.369 1.319 -10.601 1.17 -9.81 1.016 C-6.45 0.378 -3.436 0 0 0 Z " fill="#4B0374" transform="translate(933,615)"/>
<path d="M0 0 C33.99 0 67.98 0 103 0 C104.65 3.3 106.3 6.6 108 10 C110.146 12.896 110.146 12.896 113 15 C113.579 15.464 114.158 15.928 114.754 16.406 C121.678 21.136 129.899 21.04 138 20 C139.529 19.556 141.057 19.105 142.582 18.648 C146.418 17.746 146.418 17.746 148.798 18.784 C150.578 20.141 152.117 21.593 153.688 23.188 C154.896 24.318 156.107 25.445 157.32 26.57 C158.233 27.435 158.233 27.435 159.165 28.317 C161.995 30.912 165.015 33.232 168.062 35.562 C172.637 39.104 177.107 42.736 181.5 46.5 C185.916 50.282 190.409 53.933 195 57.5 C199.591 61.067 204.084 64.718 208.5 68.5 C212.838 72.212 217.243 75.807 221.75 79.312 C229.325 85.205 236.714 91.315 244.106 97.434 C253.684 105.354 263.351 113.166 273 121 C281.042 127.529 289.081 134.06 297.094 140.625 C300.723 143.591 304.361 146.546 308 149.5 C312.506 153.159 317.01 156.821 321.5 160.5 C328.649 166.356 335.826 172.176 343 178 C351.042 184.529 359.081 191.06 367.094 197.625 C370.723 200.591 374.361 203.546 378 206.5 C382.506 210.159 387.01 213.821 391.5 217.5 C403.604 227.412 415.768 237.246 428 247 C426.515 252.94 426.515 252.94 425 259 C417.061 260.592 409.121 262.184 401.181 263.774 C397.491 264.513 393.8 265.253 390.11 265.993 C365.489 270.932 340.856 275.81 316.168 280.406 C297.956 283.8 279.789 287.417 261.625 291.062 C260.297 291.329 258.969 291.595 257.641 291.862 C256.987 291.993 256.332 292.125 255.658 292.26 C234.808 296.444 213.952 300.582 193.047 304.488 C190.135 305.033 187.224 305.579 184.312 306.125 C183.222 306.329 183.222 306.329 182.109 306.538 C170.849 308.652 159.609 310.863 148.375 313.113 C147.694 313.25 147.014 313.386 146.313 313.526 C139.421 314.907 132.53 316.292 125.641 317.683 C123.675 318.08 121.71 318.475 119.744 318.871 C117.306 319.362 114.867 319.855 112.43 320.349 C111.347 320.567 110.264 320.785 109.148 321.01 C108.198 321.202 107.248 321.394 106.269 321.592 C104 322 104 322 102 322 C101.747 321.215 101.494 320.429 101.233 319.62 C100.02 315.859 98.807 312.097 97.594 308.336 C97.369 307.638 97.144 306.941 96.912 306.222 C94.089 297.471 91.264 288.72 88.432 279.971 C86.454 273.856 84.476 267.741 82.5 261.625 C82.187 260.656 82.187 260.656 81.867 259.667 C76.813 244.026 71.786 228.376 66.844 212.699 C66.637 212.044 66.431 211.389 66.218 210.714 C64.051 203.84 61.89 196.964 59.736 190.086 C59.201 188.38 59.201 188.38 58.654 186.64 C57.996 184.545 57.34 182.45 56.687 180.354 C54.891 174.64 52.952 169.003 50.865 163.389 C49.669 160.085 48.704 156.758 47.75 153.375 C42.728 135.933 36.924 118.729 31.146 101.526 C28.934 94.909 26.855 88.28 24.952 81.568 C23.007 74.811 20.745 68.163 18.5 61.5 C15.311 52.032 12.318 42.545 9.565 32.943 C8.561 29.492 7.505 26.057 6.438 22.625 C6.232 21.964 6.026 21.303 5.815 20.621 C4.282 15.756 2.564 10.981 0.699 6.234 C0 4 0 4 0 0 Z " fill="#FEFEFE" transform="translate(508,356)"/>
<path d="M0 0 C2.656 2.4 4.28 4.964 6.047 8.066 C6.931 9.61 6.931 9.61 7.834 11.186 C8.466 12.3 9.099 13.414 9.75 14.562 C10.419 15.734 11.089 16.905 11.76 18.076 C13.152 20.509 14.543 22.944 15.932 25.379 C19.1 30.932 22.302 36.465 25.5 42 C26.75 44.167 28 46.333 29.25 48.5 C29.869 49.572 30.488 50.645 31.125 51.75 C111.75 191.5 111.75 191.5 113.625 194.75 C114.874 196.916 116.124 199.081 117.373 201.246 C120.512 206.686 123.65 212.127 126.785 217.57 C132.377 227.276 137.977 236.977 143.626 246.649 C144.816 248.685 146.004 250.723 147.19 252.761 C149.664 257.013 152.146 261.257 154.688 265.469 C155.269 266.446 155.269 266.446 155.862 267.442 C156.846 269.097 157.842 270.744 158.84 272.391 C160.158 275.355 160.09 276.05 159 279 C156.982 280.988 154.995 282.773 152.812 284.562 C151.869 285.354 151.869 285.354 150.906 286.161 C146.165 290.108 141.33 293.933 136.46 297.718 C131.043 301.933 125.75 306.291 120.46 310.665 C113.668 316.281 106.83 321.841 99.984 327.391 C96.654 330.092 93.327 332.796 90 335.5 C85.942 338.798 81.884 342.095 77.824 345.391 C72.043 350.085 66.262 354.781 60.5 359.5 C52.653 365.928 44.772 372.314 36.897 378.707 C27.187 386.59 27.187 386.59 17.5 394.5 C9.653 400.928 1.772 407.314 -6.103 413.707 C-13.443 419.667 -20.779 425.633 -28.094 431.625 C-32.42 435.161 -36.76 438.681 -41.098 442.203 C-44.904 445.295 -48.706 448.392 -52.5 451.5 C-56.99 455.179 -61.494 458.841 -66 462.5 C-72.345 467.652 -78.678 472.819 -85 478 C-86.833 479.5 -88.667 481 -90.5 482.5 C-91.407 483.243 -92.315 483.985 -93.25 484.75 C-101.5 491.5 -101.5 491.5 -104.262 493.758 C-106.058 495.229 -107.853 496.703 -109.645 498.18 C-114.67 502.315 -119.743 506.375 -124.875 510.375 C-129.505 513.986 -134.04 517.682 -138.5 521.5 C-143.414 525.705 -148.43 529.747 -153.537 533.715 C-156.825 536.275 -160.079 538.869 -163.301 541.512 C-164.021 542.102 -164.741 542.693 -165.483 543.301 C-166.882 544.451 -168.278 545.605 -169.671 546.761 C-170.308 547.285 -170.945 547.808 -171.602 548.348 C-172.442 549.044 -172.442 549.044 -173.299 549.754 C-175.116 551.085 -176.963 552.049 -179 553 C-178.371 546.102 -176.134 539.817 -173.949 533.273 C-173.321 531.368 -172.693 529.462 -172.065 527.556 C-171.399 525.542 -170.731 523.528 -170.062 521.515 C-168.678 517.349 -167.301 513.179 -165.926 509.009 C-164.554 504.849 -163.181 500.688 -161.806 496.528 C-158.294 485.905 -154.818 475.271 -151.375 464.625 C-150.908 463.183 -150.441 461.741 -149.973 460.299 C-147.94 454.02 -145.914 447.738 -143.898 441.454 C-143.205 439.296 -142.512 437.139 -141.819 434.982 C-140.975 432.355 -140.134 429.728 -139.294 427.1 C-137.633 421.925 -135.943 416.783 -134.031 411.695 C-132.436 407.377 -131.098 403.013 -129.832 398.59 C-126.536 387.131 -122.733 375.835 -118.993 364.514 C-116.738 357.689 -114.493 350.86 -112.25 344.031 C-112.024 343.343 -111.798 342.655 -111.565 341.946 C-107.369 329.173 -103.261 316.374 -99.188 303.562 C-92.27 281.815 -85.149 260.137 -78.005 238.464 C-71.301 218.125 -64.691 197.761 -58.207 177.351 C-54.013 164.157 -49.679 151.031 -45.095 137.968 C-42.803 131.419 -40.703 124.859 -38.829 118.179 C-36.867 111.285 -34.459 104.548 -32.029 97.805 C-30.134 92.487 -28.437 87.141 -26.883 81.715 C-24.525 73.531 -21.901 65.438 -19.242 57.348 C-19.027 56.692 -18.811 56.037 -18.589 55.361 C-17.249 51.286 -15.905 47.212 -14.56 43.138 C-12.748 37.65 -10.94 32.16 -9.134 26.67 C-8.511 24.779 -7.886 22.888 -7.261 20.997 C-5.271 14.958 -3.342 8.917 -1.596 2.803 C-1 1 -1 1 0 0 Z " fill="#4B0374" transform="translate(212,65)"/>
<path d="M0 0 C1.272 0.476 1.272 0.476 2.57 0.961 C6.095 2.029 9.207 2.4 12.875 2.625 C14.027 2.7 15.18 2.775 16.367 2.852 C17.67 2.925 17.67 2.925 19 3 C31.873 41.362 44.438 79.827 56.938 118.312 C57.175 119.042 57.412 119.772 57.657 120.524 C59.831 127.214 61.983 133.908 64.035 140.637 C66.071 147.299 68.274 153.899 70.5 160.5 C73.102 168.216 75.612 175.947 77.986 183.736 C79.731 189.355 81.62 194.925 83.5 200.5 C86.102 208.216 88.612 215.947 90.986 223.736 C92.731 229.355 94.62 234.925 96.5 240.5 C97.262 242.76 98.022 245.02 98.781 247.281 C99.112 248.262 99.443 249.242 99.783 250.252 C100.836 253.495 101.844 256.745 102.84 260.006 C105.059 267.244 107.41 274.436 109.781 281.625 C110.237 283.009 110.692 284.393 111.147 285.777 C112.104 288.687 113.062 291.597 114.021 294.507 C116.504 302.048 118.982 309.59 121.461 317.133 C121.704 317.873 121.947 318.612 122.198 319.374 C126.194 331.535 130.176 343.699 134.125 355.875 C134.356 356.587 134.588 357.299 134.826 358.032 C136.94 364.541 139.027 371.056 141.023 377.602 C143.064 384.275 145.271 390.888 147.5 397.5 C150.102 405.216 152.612 412.947 154.986 420.736 C156.731 426.355 158.62 431.925 160.5 437.5 C168.385 460.885 168.385 460.885 171 472 C168.981 473.226 167.621 474.048 165.227 473.863 C161.993 472.609 159.682 470.4 157.125 468.125 C152.512 464.116 147.833 460.242 143 456.5 C137.85 452.5 132.846 448.366 127.895 444.125 C124.008 440.812 120.033 437.634 116 434.5 C110.762 430.429 105.662 426.227 100.618 421.918 C96.621 418.509 92.553 415.206 88.438 411.941 C84.969 409.179 81.546 406.363 78.117 403.551 C74.421 400.522 70.71 397.512 67 394.5 C62.494 390.841 57.99 387.179 53.5 383.5 C46.351 377.644 39.174 371.824 32 366 C23.952 359.466 15.906 352.929 7.887 346.359 C1.604 341.224 -4.7 336.115 -11 331 C-19.042 324.471 -27.081 317.94 -35.094 311.375 C-38.723 308.409 -42.361 305.454 -46 302.5 C-50.506 298.841 -55.01 295.179 -59.5 291.5 C-66.649 285.644 -73.826 279.824 -81 274 C-86.335 269.669 -91.669 265.336 -97 261 C-97.819 260.334 -97.819 260.334 -98.654 259.655 C-104.164 255.171 -109.632 250.652 -115 246 C-114.505 244.804 -114.01 243.607 -113.5 242.375 C-110.798 234.126 -110.453 225.269 -114.312 217.375 C-115.66 215.004 -116.95 213.055 -118.793 211.039 C-119.191 210.366 -119.59 209.693 -120 209 C-118.828 205.401 -117.081 202.181 -115.234 198.887 C-114.681 197.899 -114.129 196.911 -113.559 195.893 C-112.962 194.835 -112.365 193.777 -111.75 192.688 C-111.127 191.579 -110.503 190.47 -109.861 189.328 C-104.521 179.861 -99.059 170.467 -93.562 161.09 C-89.868 154.784 -86.211 148.457 -82.562 142.125 C-81.94 141.045 -81.317 139.965 -80.676 138.852 C-79.414 136.662 -78.153 134.472 -76.891 132.282 C-73.763 126.853 -70.631 121.427 -67.5 116 C-66.25 113.833 -65 111.667 -63.75 109.5 C-56.25 96.5 -48.75 83.5 -41.25 70.5 C-40.631 69.427 -40.012 68.355 -39.375 67.25 C-38.126 65.084 -36.876 62.919 -35.627 60.754 C-32.488 55.314 -29.35 49.873 -26.215 44.43 C-19.872 33.421 -13.515 22.419 -7.125 11.438 C-6.223 9.884 -6.223 9.884 -5.302 8.298 C-4.751 7.353 -4.201 6.408 -3.633 5.434 C-3.147 4.599 -2.661 3.764 -2.161 2.904 C-1 1 -1 1 0 0 Z " fill="#FEFEFE" transform="translate(779,118)"/>
<path d="M0 0 C-4.012 4.288 -8.4 7.617 -13.188 11 C-14.807 12.157 -16.427 13.315 -18.047 14.473 C-18.871 15.059 -19.696 15.646 -20.545 16.25 C-24.353 18.964 -28.146 21.7 -31.938 24.438 C-32.676 24.971 -33.415 25.504 -34.177 26.053 C-39.642 30.002 -45.076 33.993 -50.5 38 C-60.354 45.279 -70.286 52.448 -80.229 59.604 C-88.686 65.692 -97.119 71.809 -105.5 78 C-113.879 84.19 -122.311 90.305 -130.766 96.391 C-134.514 99.09 -138.257 101.795 -142 104.5 C-146.486 107.741 -150.973 110.981 -155.465 114.215 C-163.175 119.768 -170.858 125.354 -178.5 131 C-188.354 138.279 -198.286 145.448 -208.229 152.604 C-216.686 158.692 -225.119 164.809 -233.5 171 C-241.879 177.19 -250.311 183.305 -258.766 189.391 C-262.514 192.09 -266.257 194.795 -270 197.5 C-274.486 200.741 -278.973 203.981 -283.465 207.215 C-291.175 212.768 -298.858 218.354 -306.5 224 C-316.354 231.279 -326.286 238.448 -336.229 245.604 C-344.771 251.753 -353.286 257.933 -361.75 264.188 C-368.269 269.004 -374.824 273.76 -381.43 278.457 C-395.063 288.154 -408.55 298.051 -422 308 C-422.33 307.34 -422.66 306.68 -423 306 C-422.035 303.124 -420.994 300.346 -419.863 297.535 C-419.517 296.657 -419.171 295.778 -418.814 294.873 C-417.654 291.933 -416.483 288.998 -415.312 286.062 C-414.491 283.985 -413.669 281.907 -412.849 279.829 C-411.117 275.443 -409.381 271.058 -407.642 266.674 C-403.855 257.118 -400.111 247.546 -396.364 237.975 C-394.268 232.624 -392.169 227.275 -390.07 221.926 C-389.224 219.769 -388.378 217.612 -387.532 215.456 C-387.114 214.389 -386.695 213.322 -386.264 212.223 C-383.341 204.77 -380.418 197.316 -377.495 189.862 C-375.832 185.623 -374.17 181.383 -372.507 177.144 C-369.154 168.595 -365.801 160.046 -362.452 151.496 C-362.03 150.419 -361.608 149.342 -361.173 148.233 C-360.321 146.058 -359.47 143.883 -358.618 141.708 C-356.523 136.359 -354.424 131.011 -352.313 125.668 C-348.615 116.296 -344.947 106.918 -341.443 97.471 C-339.941 93.429 -338.415 89.396 -336.887 85.365 C-336.178 83.475 -335.482 81.581 -334.799 79.682 C-333.861 77.078 -332.883 74.492 -331.895 71.906 C-331.633 71.143 -331.371 70.38 -331.101 69.594 C-329.882 66.509 -328.993 64.552 -326.033 62.905 C-323.7 62.088 -321.418 61.503 -319 61 C-318.337 60.846 -317.675 60.693 -316.992 60.535 C-315.015 60.102 -313.035 59.734 -311.043 59.379 C-310.287 59.238 -309.531 59.098 -308.752 58.953 C-307.102 58.646 -305.452 58.342 -303.801 58.041 C-299.164 57.192 -294.531 56.321 -289.898 55.449 C-288.89 55.26 -287.882 55.071 -286.844 54.875 C-273.969 52.445 -261.127 49.854 -248.282 47.271 C-242.454 46.099 -236.625 44.931 -230.797 43.762 C-228.96 43.393 -228.96 43.393 -227.087 43.018 C-210.76 39.746 -194.415 36.57 -178.047 33.512 C-175.135 32.967 -172.224 32.421 -169.312 31.875 C-168.576 31.737 -167.839 31.599 -167.08 31.456 C-150.902 28.414 -134.764 25.177 -118.625 21.938 C-117.966 21.805 -117.308 21.673 -116.629 21.537 C-115.304 21.271 -113.978 21.005 -112.652 20.738 C-95.771 17.35 -78.883 14.009 -61.974 10.766 C-54.3 9.29 -46.632 7.789 -38.962 6.292 C-36.266 5.765 -33.57 5.24 -30.874 4.714 C-30.034 4.55 -29.193 4.386 -28.327 4.217 C-26.701 3.899 -25.076 3.583 -23.45 3.266 C-18.598 2.319 -13.752 1.346 -8.916 0.318 C-5.911 -0.181 -3.038 -0.132 0 0 Z " fill="#FEFDFE" transform="translate(936,629)"/>
<path d="M0 0 C7.153 4.736 12.53 9.868 14.988 18.316 C15.956 27.554 15.347 35.296 9.988 43.066 C9.473 43.824 8.957 44.582 8.426 45.363 C6.988 47.316 6.988 47.316 4.988 49.316 C6.163 56.472 8.489 63.259 10.777 70.125 C11.153 71.264 11.529 72.404 11.916 73.578 C12.933 76.663 13.954 79.748 14.977 82.832 C16.706 88.054 18.424 93.281 20.144 98.506 C20.583 99.842 21.022 101.177 21.462 102.512 C25.924 116.068 30.283 129.655 34.613 143.254 C39.069 157.241 43.542 171.218 48.252 185.123 C49.886 189.953 51.454 194.794 52.941 199.672 C55.003 206.428 57.231 213.123 59.488 219.816 C60.25 222.076 61.011 224.337 61.77 226.598 C62.1 227.578 62.431 228.558 62.771 229.568 C63.827 232.82 64.838 236.081 65.837 239.351 C68.006 246.427 70.306 253.457 72.629 260.484 C73.072 261.83 73.516 263.175 73.959 264.52 C74.897 267.369 75.836 270.217 76.775 273.065 C83.916 294.724 91.017 316.394 97.926 338.129 C104.318 358.234 110.886 378.279 117.488 398.316 C125.3 422.022 133.026 445.75 140.592 469.535 C140.893 470.481 141.194 471.428 141.504 472.402 C141.797 473.326 142.091 474.249 142.393 475.2 C144.37 481.407 146.38 487.603 148.41 493.793 C148.676 494.606 148.942 495.418 149.216 496.255 C150.435 499.982 151.659 503.706 152.894 507.427 C153.311 508.7 153.728 509.973 154.145 511.246 C154.683 512.874 154.683 512.874 155.232 514.535 C155.988 517.316 155.988 517.316 155.988 521.316 C156.824 521.355 156.824 521.355 157.676 521.395 C164.91 521.932 170.155 523.879 175.676 528.629 C182.432 536.481 185.502 542.604 185.305 553.215 C184.543 560.683 181.414 567.127 175.988 572.316 C169.071 577.097 164.042 579.455 155.613 579.504 C154.512 579.518 153.412 579.532 152.277 579.547 C148.859 579.307 146.19 578.5 142.988 577.316 C142.019 577.131 141.05 576.945 140.051 576.754 C135.985 574.845 134.183 572.109 131.602 568.508 C130.119 566.321 130.119 566.321 128.344 564.906 C125.213 561.235 125.828 555.476 125.801 550.879 C125.787 549.808 125.772 548.736 125.758 547.633 C126.018 543.896 126.85 540.875 127.988 537.316 C126.363 535.996 124.737 534.675 123.112 533.354 C121.679 532.19 120.245 531.025 118.812 529.86 C115.125 526.865 111.438 523.869 107.75 520.875 C101.122 515.493 94.499 510.103 87.895 504.691 C84.265 501.726 80.627 498.771 76.988 495.816 C72.482 492.158 67.979 488.495 63.488 484.816 C56.34 478.961 49.162 473.141 41.988 467.316 C33.947 460.787 25.907 454.256 17.895 447.691 C14.265 444.726 10.627 441.771 6.988 438.816 C2.482 435.158 -2.021 431.495 -6.512 427.816 C-13.66 421.961 -20.838 416.141 -28.012 410.316 C-36.06 403.782 -44.105 397.245 -52.125 390.676 C-58.408 385.541 -64.712 380.431 -71.012 375.316 C-79.053 368.787 -87.093 362.256 -95.105 355.691 C-98.735 352.726 -102.373 349.771 -106.012 346.816 C-110.518 343.158 -115.021 339.495 -119.512 335.816 C-121.345 334.316 -123.178 332.816 -125.012 331.316 C-125.61 330.827 -126.207 330.337 -126.823 329.833 C-135.773 322.507 -144.797 315.306 -154.012 308.316 C-152.388 306.608 -150.719 304.942 -149.012 303.316 C-148.352 303.316 -147.692 303.316 -147.012 303.316 C-146.682 302.326 -146.352 301.336 -146.012 300.316 C-145.352 299.986 -144.692 299.656 -144.012 299.316 C-143.682 298.656 -143.352 297.996 -143.012 297.316 C-142.406 297.873 -141.8 298.43 -141.176 299.004 C-136.207 303.529 -131.162 307.877 -125.887 312.039 C-122.362 314.831 -118.874 317.666 -115.387 320.504 C-114.708 321.056 -114.029 321.609 -113.329 322.178 C-111.929 323.316 -110.53 324.455 -109.13 325.593 C-107.025 327.305 -104.919 329.016 -102.812 330.727 C-96.171 336.119 -89.536 341.52 -82.918 346.941 C-79.289 349.907 -75.65 352.862 -72.012 355.816 C-67.505 359.475 -63.002 363.138 -58.512 366.816 C-51.363 372.672 -44.186 378.492 -37.012 384.316 C-28.964 390.851 -20.918 397.388 -12.898 403.957 C-6.615 409.092 -0.311 414.202 5.988 419.316 C14.03 425.845 22.069 432.377 30.082 438.941 C33.711 441.907 37.35 444.862 40.988 447.816 C45.495 451.475 49.998 455.138 54.488 458.816 C61.637 464.672 68.814 470.492 75.988 476.316 C84.03 482.845 92.069 489.377 100.082 495.941 C103.711 498.907 107.35 501.862 110.988 504.816 C115.702 508.644 120.412 512.474 125.113 516.316 C125.977 517.015 126.841 517.714 127.73 518.434 C129.107 519.582 130.456 520.767 131.746 522.012 C133.354 523.631 133.354 523.631 135.988 525.316 C139.616 524.987 139.616 524.987 142.988 524.316 C142.426 522.88 142.426 522.88 141.852 521.414 C139.154 514.431 136.646 507.461 134.613 500.254 C132.663 493.343 130.385 486.585 127.988 479.816 C125.41 472.53 123.02 465.247 120.922 457.809 C118.913 450.812 116.485 443.969 114.018 437.123 C112.11 431.77 110.403 426.387 108.836 420.926 C105.263 408.537 101.13 396.324 97.091 384.082 C95.965 380.668 94.842 377.253 93.719 373.837 C93.384 372.817 93.384 372.817 93.042 371.777 C92.592 370.41 92.143 369.043 91.694 367.675 C91.026 365.646 90.359 363.616 89.691 361.587 C86.224 351.046 82.781 340.498 79.363 329.941 C79.013 328.862 79.013 328.862 78.656 327.76 C76.39 320.766 74.132 313.77 71.886 306.77 C71.193 304.613 70.5 302.456 69.807 300.298 C68.963 297.672 68.122 295.045 67.283 292.417 C65.269 286.143 63.141 279.937 60.859 273.756 C59.659 270.394 58.695 267.007 57.738 263.566 C55.742 256.555 53.421 249.688 50.988 242.816 C48.41 235.53 46.02 228.247 43.922 220.809 C41.913 213.812 39.485 206.969 37.018 200.123 C35.104 194.753 33.393 189.353 31.82 183.875 C28.517 172.422 24.714 161.13 20.975 149.814 C18.749 143.075 16.535 136.333 14.32 129.59 C13.985 128.569 13.985 128.569 13.643 127.527 C8.994 113.37 4.41 99.193 -0.137 85.004 C-0.476 83.949 -0.815 82.894 -1.164 81.806 C-2.119 78.835 -3.07 75.863 -4.02 72.891 C-4.296 72.032 -4.572 71.173 -4.856 70.288 C-6.433 65.333 -7.803 60.374 -9.012 55.316 C-9.881 55.34 -10.749 55.363 -11.645 55.387 C-12.797 55.405 -13.949 55.423 -15.137 55.441 C-16.274 55.465 -17.411 55.488 -18.582 55.512 C-22.082 55.312 -24.727 54.481 -28.012 53.316 C-28.388 53.968 -28.763 54.619 -29.151 55.291 C-55.021 100.132 -80.891 144.974 -106.762 189.816 C-107.381 190.889 -107.999 191.962 -108.637 193.067 C-109.886 195.232 -111.135 197.397 -112.385 199.562 C-115.524 205.003 -118.662 210.444 -121.797 215.887 C-125.53 222.366 -129.269 228.842 -133.012 235.316 C-133.667 236.452 -134.323 237.587 -134.998 238.757 C-136.937 242.112 -138.88 245.465 -140.824 248.816 C-141.417 249.844 -142.01 250.871 -142.621 251.93 C-143.169 252.872 -143.717 253.814 -144.281 254.785 C-144.762 255.615 -145.242 256.444 -145.738 257.299 C-147.012 259.316 -147.012 259.316 -149.012 261.316 C-149.496 260.979 -149.981 260.641 -150.48 260.293 C-155.284 257.097 -159.352 255.428 -165.012 254.316 C-165.012 253.986 -165.012 253.656 -165.012 253.316 C-164.245 253.24 -163.479 253.163 -162.689 253.084 C-159.924 252.562 -159.924 252.562 -158.473 250.472 C-158.044 249.667 -157.614 248.861 -157.172 248.031 C-156.674 247.121 -156.176 246.21 -155.663 245.272 C-155.138 244.276 -154.614 243.28 -154.074 242.254 C-152.918 240.133 -151.761 238.013 -150.602 235.895 C-150.008 234.801 -149.415 233.707 -148.804 232.58 C-146.013 227.497 -143.077 222.502 -140.137 217.504 C-138.96 215.495 -137.785 213.486 -136.609 211.477 C-136.019 210.467 -135.429 209.458 -134.821 208.418 C-129.813 199.832 -124.864 191.212 -119.903 182.599 C-116.775 177.17 -113.643 171.743 -110.512 166.316 C-109.262 164.15 -108.012 161.983 -106.762 159.816 C-94.262 138.15 -81.762 116.483 -69.262 94.816 C-68.642 93.742 -68.022 92.668 -67.384 91.561 C-66.144 89.412 -64.903 87.262 -63.663 85.113 C-60.738 80.043 -57.814 74.974 -54.892 69.903 C-53.514 67.512 -52.135 65.121 -50.757 62.731 C-49.786 61.047 -48.816 59.362 -47.846 57.678 C-47.256 56.655 -46.666 55.632 -46.059 54.578 C-45.541 53.681 -45.024 52.783 -44.491 51.858 C-43.466 50.097 -42.403 48.359 -41.31 46.64 C-39.779 44.403 -39.779 44.403 -40.199 41.879 C-40.761 40.106 -41.377 38.349 -42.035 36.609 C-44.301 28.969 -44.348 20.106 -40.949 12.816 C-37.006 6.167 -32.016 0.858 -24.73 -2.023 C-16.631 -3.99 -7.451 -4.027 0 0 Z " fill="#4E0776" transform="translate(807.01171875,65.68359375)"/>
<path d="M0 0 C5.095 3.668 9.887 7.578 14.625 11.688 C19.265 15.707 23.964 19.61 28.812 23.375 C36.37 29.243 43.737 35.333 51.106 41.434 C58.731 47.739 66.417 53.967 74.098 60.203 C77.905 63.295 81.707 66.392 85.5 69.5 C92.649 75.356 99.826 81.176 107 87 C115.048 93.534 123.094 100.071 131.113 106.641 C137.396 111.776 143.7 116.885 150 122 C158.042 128.529 166.081 135.06 174.094 141.625 C177.723 144.591 181.361 147.546 185 150.5 C189.506 154.159 194.01 157.821 198.5 161.5 C205.649 167.356 212.826 173.176 220 179 C228.042 185.529 236.081 192.06 244.094 198.625 C247.723 201.591 251.361 204.546 255 207.5 C273.987 222.922 273.987 222.922 281 229 C280.617 230.941 280.617 230.941 280 233 C278.667 233.667 277.333 234.333 276 235 C274.247 237.532 274.247 237.532 273 240 C267.517 236.592 262.658 232.508 257.692 228.395 C254.477 225.745 251.236 223.125 248 220.5 C242.626 216.137 237.261 211.762 231.906 207.375 C228.277 204.409 224.639 201.454 221 198.5 C216.494 194.841 211.99 191.179 207.5 187.5 C200.351 181.644 193.174 175.824 186 170 C177.958 163.471 169.919 156.94 161.906 150.375 C158.277 147.409 154.639 144.454 151 141.5 C146.494 137.841 141.99 134.179 137.5 130.5 C130.351 124.644 123.174 118.824 116 113 C107.952 106.466 99.906 99.929 91.887 93.359 C85.604 88.224 79.3 83.115 73 78 C64.958 71.471 56.919 64.94 48.906 58.375 C45.277 55.409 41.639 52.454 38 49.5 C33.494 45.841 28.99 42.179 24.5 38.5 C22.667 37 20.833 35.5 19 34 C18.402 33.51 17.804 33.021 17.188 32.516 C8.239 25.19 -0.785 17.99 -10 11 C-8.377 9.291 -6.707 7.626 -5 6 C-4.34 6 -3.68 6 -3 6 C-2.67 5.01 -2.34 4.02 -2 3 C-1.34 2.67 -0.68 2.34 0 2 C0 1.34 0 0.68 0 0 Z " fill="#4E0776" transform="translate(663,363)"/>
<path d="M0 0 C0.688 0.615 0.688 0.615 1.391 1.242 C2.004 1.781 2.618 2.32 3.25 2.875 C3.853 3.409 4.457 3.942 5.078 4.492 C6.974 5.98 8.813 7.003 11 8 C9.655 11.544 8.088 14.808 6.234 18.113 C5.681 19.101 5.129 20.089 4.559 21.107 C3.962 22.165 3.365 23.223 2.75 24.312 C2.127 25.421 1.503 26.53 0.861 27.672 C-4.479 37.139 -9.941 46.533 -15.438 55.91 C-19.132 62.216 -22.789 68.543 -26.438 74.875 C-27.06 75.955 -27.683 77.035 -28.324 78.148 C-29.586 80.338 -30.847 82.528 -32.109 84.718 C-35.237 90.147 -38.369 95.573 -41.5 101 C-42.75 103.167 -44 105.333 -45.25 107.5 C-52.75 120.5 -60.25 133.5 -67.75 146.5 C-68.369 147.573 -68.988 148.645 -69.625 149.75 C-70.874 151.916 -72.124 154.081 -73.373 156.246 C-76.512 161.686 -79.65 167.127 -82.785 172.57 C-86.518 179.05 -90.258 185.526 -94 192 C-94.655 193.135 -95.311 194.271 -95.986 195.44 C-97.925 198.796 -99.868 202.148 -101.812 205.5 C-102.406 206.528 -102.999 207.555 -103.61 208.614 C-104.157 209.556 -104.705 210.498 -105.27 211.469 C-105.75 212.298 -106.231 213.128 -106.726 213.982 C-108 216 -108 216 -110 218 C-110.485 217.662 -110.969 217.325 -111.469 216.977 C-116.272 213.781 -120.34 212.112 -126 211 C-126 210.67 -126 210.34 -126 210 C-125.234 209.923 -124.467 209.847 -123.677 209.768 C-120.913 209.246 -120.913 209.246 -119.461 207.156 C-119.032 206.35 -118.603 205.545 -118.16 204.715 C-117.662 203.804 -117.164 202.894 -116.651 201.956 C-116.127 200.96 -115.603 199.964 -115.062 198.938 C-113.907 196.817 -112.749 194.697 -111.59 192.578 C-110.997 191.484 -110.404 190.391 -109.792 189.264 C-107.001 184.181 -104.066 179.185 -101.125 174.188 C-99.949 172.179 -98.773 170.17 -97.598 168.16 C-97.007 167.151 -96.417 166.142 -95.809 165.102 C-90.802 156.516 -85.853 147.895 -80.891 139.282 C-77.763 133.853 -74.631 128.427 -71.5 123 C-70.25 120.833 -69 118.667 -67.75 116.5 C-55.25 94.833 -42.75 73.167 -30.25 51.5 C-29.63 50.426 -29.011 49.352 -28.372 48.245 C-27.132 46.095 -25.89 43.944 -24.649 41.794 C-21.73 36.736 -18.813 31.677 -15.906 26.612 C-14.538 24.231 -13.169 21.85 -11.8 19.469 C-10.839 17.797 -9.881 16.123 -8.922 14.449 C-6.089 9.524 -3.243 4.667 0 0 Z " fill="#4E0776" transform="translate(768,109)"/>
<path d="M0 0 C7.153 4.736 12.53 9.868 14.988 18.316 C15.947 27.472 15.394 35.245 10.051 42.941 C9.547 43.676 9.043 44.411 8.523 45.168 C8.017 45.877 7.51 46.586 6.988 47.316 C6.487 48.032 5.985 48.747 5.469 49.484 C2.705 52.904 -0.882 54.063 -5.074 55.004 C-22.031 56.35 -22.031 56.35 -28.012 52.316 C-28.656 51.976 -29.301 51.636 -29.965 51.285 C-36.4 47.758 -39.456 43.258 -42.117 36.516 C-44.256 28.865 -44.34 20.089 -40.949 12.816 C-37.006 6.167 -32.016 0.858 -24.73 -2.023 C-16.631 -3.99 -7.451 -4.027 0 0 Z " fill="#4E0876" transform="translate(807.01171875,65.68359375)"/>
<path d="M0 0 C7.004 4.142 11.026 10.147 13.582 17.816 C14.24 26.308 14.046 32.512 9.582 39.816 C9.206 41.138 8.861 42.471 8.582 43.816 C7.922 43.816 7.262 43.816 6.582 43.816 C5.922 44.724 5.262 45.631 4.582 46.566 C0.13 51.981 -5.508 53.504 -12.309 54.234 C-22.198 54.737 -28.57 52.893 -36.168 46.504 C-43.514 37.729 -45.261 30.041 -44.636 18.781 C-43.907 12.211 -40.338 7.378 -35.668 2.941 C-24.423 -5.966 -12.737 -6.235 0 0 Z " fill="#4D0675" transform="translate(654.41796875,323.18359375)"/>
<path d="M0 0 C34.65 0 69.3 0 105 0 C105.495 6.435 105.495 6.435 106 13 C72.34 13 38.68 13 4 13 C0 3 0 3 0 0 Z " fill="#4B0374" transform="translate(504,343)"/>
<path d="M0 0 C5.358 1.921 8.458 4.917 11 10 C11.591 15.679 11.294 20.169 8 25 C4.284 28.746 1.093 30.799 -4.25 31.312 C-9.587 30.868 -13.102 29.204 -16.551 25.199 C-19.592 20.788 -20.808 17.453 -20 12 C-16.595 2.542 -9.553 -0.886 0 0 Z " fill="#FBF9FC" transform="translate(643,333)"/>
<path d="M0 0 C4.635 2.303 7.295 5.546 8.941 10.34 C9.915 15.438 9.044 19.478 6.188 23.797 C3.376 27.278 0.797 29.072 -3.68 29.719 C-8.193 29.909 -11.352 29.661 -15.496 27.777 C-19.611 23.863 -22.222 20.136 -22.559 14.34 C-22.22 8.523 -19.613 4.783 -15.434 0.902 C-10.314 -1.468 -5.409 -1.734 0 0 Z " fill="#FBFAFC" transform="translate(969.05859375,601.66015625)"/>
<path d="M0 0 C3.438 1.688 3.438 1.688 6 4 C6.784 4.701 7.567 5.403 8.375 6.125 C10.785 10.389 10.63 14.212 10 19 C8.333 23.738 6.146 26.201 2 29 C-2.381 30.46 -6.432 30.741 -11 30 C-15.23 27.63 -18.199 24.515 -20 20 C-20.844 15.193 -21.095 10.801 -18.504 6.539 C-12.821 -0.007 -8.598 -0.876 0 0 Z " fill="#FDFCFD" transform="translate(798,77)"/>
</svg>
